<?xml version="1.0" encoding="UTF-8"?> <!-- Generator: Adobe Illustrator 26.0.3, SVG Export Plug-In . SVG Version: 6.00 Build 0) --> <svg xmlns="http://www.w3.org/2000/svg" xmlns:xlink="http://www.w3.org/1999/xlink" id="Layer_1" x="0px" y="0px" viewBox="0 0 203 19" style="enable-background:new 0 0 203 19;" xml:space="preserve"> <style type="text/css"> .st0{fill:#FFFFFF;} .st1{fill-rule:evenodd;clip-rule:evenodd;fill:#FFFFFF;} </style> <path class="st0" d="M30.8,0.2l-8.7,18.7H9.3L0.6,0.2h6.5l8.6,18.7l8.6-18.7H30.8L30.8,0.2z"></path> <path class="st0" d="M37.6,4.8v2.8h13.9v4.2H37.6v2.6h13.9v4.6H31.7V0.2h19.7v4.6H37.6L37.6,4.8z"></path> <path class="st0" d="M98.2,11.7l-8.5-4.3v11.5h-5.9V7.4l-8.5,4.3V6.1l11.5-5.9l11.5,5.9L98.2,11.7L98.2,11.7z"></path> <path class="st0" d="M129.6,9.6L120,0.2h7.9l5.9,5.9l5.9-5.9h7.8l-9.7,9.3l9.7,9.3h-7.8l-5.9-5.9l-5.9,5.9H120L129.6,9.6z"></path> <path class="st0" d="M170.6,13.4l0,5.5l-22,0l0-12.9l6-6l16,0v5.5l-16.4,0l0,7.8L170.6,13.4z"></path> <path class="st0" d="M194.4,12.7l0,6.2h-4.4h-17.6V0l22,0l-6,5.5l-10.5,0v7.8h10.5l0-1.2h-9.1V6.7h9.1L194.4,12.7z"></path> <path class="st1" d="M196.9,6.7v12.2h5.5V6.7H196.9z M196.9,5.5l2.8-2.8l2.8,2.8V0h-5.5V5.5z"></path> <path class="st0" d="M119.1,0.2H99.4v4.6h19.7V0.2z"></path> <path class="st0" d="M119.1,7.6H99.4v4.2h19.7V7.6z"></path> <path class="st0" d="M119.1,14.3H99.4v4.6h19.7V14.3z"></path> <polygon class="st0" points="67.8,11.7 74.5,11.7 74.5,6.1 74.4,0.2 61.2,0.2 61.2,0.2 52.7,0.2 52.7,19 61.2,19 61.2,13.9 65.8,18.9 74.4,18.9 67.8,11.7 "></polygon> </svg> 